<svg xmlns="http://www.w3.org/2000/svg" xmlns:xlink="http://www.w3.org/1999/xlink" width="87" height="86" version="1.1" viewBox="0 0 87 86"><title>play</title><defs><polygon id="path-1" points="17 18 52 52 -18 52"/><filter id="filter-2" width="134.3%" height="170.6%" x="-17.1%" y="-35.3%" filterUnits="objectBoundingBox"><feOffset dx="0" dy="0" in="SourceAlpha" result="shadowOffsetOuter1"/><feGaussianBlur in="shadowOffsetOuter1" result="shadowBlurOuter1" stdDeviation="4"/><feColorMatrix in="shadowBlurOuter1" type="matrix" values="0 0 0 0 0 0 0 0 0 0 0 0 0 0 0 0 0 0 0.656714379 0"/></filter><path id="path-3" d="M13,1.04094978e-15 L47,35 L13,70 L13,63.824 L41,35 L13,6.176 L13,1.04094978e-15 Z"/><filter id="filter-4" width="170.6%" height="134.3%" x="-35.3%" y="-17.1%" filterUnits="objectBoundingBox"><feOffset dx="0" dy="0" in="SourceAlpha" result="shadowOffsetOuter1"/><feGaussianBlur in="shadowOffsetOuter1" result="shadowBlurOuter1" stdDeviation="4"/><feColorMatrix in="shadowBlurOuter1" type="matrix" values="0 0 0 0 0 0 0 0 0 0 0 0 0 0 0 0 0 0 0.656714379 0"/></filter><path id="path-5" d="M25,1.04094978e-15 L59,35 L25,70 L25,63.824 L53,35 L25,6.176 L25,1.04094978e-15 Z"/><filter id="filter-6" width="170.6%" height="134.3%" x="-35.3%" y="-17.1%" filterUnits="objectBoundingBox"><feOffset dx="0" dy="0" in="SourceAlpha" result="shadowOffsetOuter1"/><feGaussianBlur in="shadowOffsetOuter1" result="shadowBlurOuter1" stdDeviation="4"/><feColorMatrix in="shadowBlurOuter1" type="matrix" values="0 0 0 0 0 0 0 0 0 0 0 0 0 0 0 0 0 0 0.656714379 0"/></filter><path id="path-7" d="M37,1.04094978e-15 L71,35 L37,70 L37,63.824 L65,35 L37,6.176 L37,1.04094978e-15 Z"/><filter id="filter-8" width="170.6%" height="134.3%" x="-35.3%" y="-17.1%" filterUnits="objectBoundingBox"><feOffset dx="0" dy="0" in="SourceAlpha" result="shadowOffsetOuter1"/><feGaussianBlur in="shadowOffsetOuter1" result="shadowBlurOuter1" stdDeviation="4"/><feColorMatrix in="shadowBlurOuter1" type="matrix" values="0 0 0 0 0 0 0 0 0 0 0 0 0 0 0 0 0 0 0.656714379 0"/></filter></defs><g id="Page-1" fill="none" fill-rule="evenodd" stroke="none" stroke-width="1"><g id="try1-copy-2" transform="translate(-482.000000, -1621.000000)"><g id="videos" transform="translate(349.000000, 1540.000000)"><g id="play" transform="translate(141.000000, 89.000000)"><g id="Triangle" transform="translate(17.000000, 35.000000) rotate(90.000000) translate(-17.000000, -35.000000)"><use fill="#000" fill-opacity="1" filter="url(#filter-2)" xlink:href="#path-1"/><use fill="#FFD617" fill-rule="evenodd" xlink:href="#path-1"/></g><g id="Combined-Shape"><use fill="#000" fill-opacity="1" filter="url(#filter-4)" xlink:href="#path-3"/><use fill="#FF781E" fill-rule="evenodd" xlink:href="#path-3"/></g><g id="Combined-Shape-Copy-2"><use fill="#000" fill-opacity="1" filter="url(#filter-6)" xlink:href="#path-5"/><use fill="#FF1313" fill-rule="evenodd" xlink:href="#path-5"/></g><g id="Combined-Shape-Copy-3"><use fill="#000" fill-opacity="1" filter="url(#filter-8)" xlink:href="#path-7"/><use fill="#C90404" fill-rule="evenodd" xlink:href="#path-7"/></g></g></g></g></g></svg>